# xmcd
#
# Track frame offsets: 
#        150
#        16777
#        33202
#        45727
#        59675
#        80077
#        95452
#        109102
#        122377
#        142175
#        174800
#        189877
#        204502
#        219502
#        236150
#        250777
#        266827
#        281452
#        298175
#        327500
#
# Disc length: 4670 seconds
#
# Revision: 0
# Processed by: cddbd v1.4PL0 Copyright (c) Steve Scherf et al.
# Submitted via: ExactAudioCopy v0.90a11
#
DISCID=26123c14
DTITLE=Mikko Alatalo - 20 Suosikkia
DYEAR=1900
DGENRE=
TTITLE0=Ihmisen ikävä toisen luo
TTITLE1=Syli
TTITLE2=Maalaispoika oon
TTITLE3=Taitaa tulla kesä
TTITLE4=Alkukesän pehmeinä öinä
TTITLE5=Vicky Lee
TTITLE6=Rikoo on riskillä ruma
TTITLE7=Vesilasi, vessanavain, heiniä paali
TTITLE8=Kulta, etkö tulis hakemaan mua kotiin
TTITLE9=Yhdentoista virran maa
TTITLE10=Leuhkat eväät
TTITLE11=Kyllä sitä ollaan niin neekereitä, että
TTITLE12=Ajolähtö
TTITLE13=Suomalainen reissupoika
TTITLE14=Taistelija
TTITLE15=Kissanpentu
TTITLE16=Sun on oltava viilee
TTITLE17=On vanha jengi koossa taas
TTITLE18=Kun isojoki tulvii
TTITLE19=Kiiminkijoki
EXTD=Rämpytirämpyti :]\n\n\nSumiainen!
EXTT0=
EXTT1=
EXTT2=
EXTT3=
EXTT4=
EXTT5=
EXTT6=
EXTT7=
EXTT8=
EXTT9=
EXTT10=
EXTT11=
EXTT12=
EXTT13=
EXTT14=
EXTT15=
EXTT16=
EXTT17=
EXTT18=
EXTT19=
PLAYORDER=
